<mxfile host="app.diagrams.net" modified="2023-04-14T16:20:11.162Z" agent="Mozilla/5.0 (Windows NT 10.0; Win64; x64) AppleWebKit/537.36 (KHTML, like Gecko) Chrome/112.0.0.0 Safari/537.36 Edg/112.0.1722.39" etag="fRtmxZPBqKu3sI1GqK-c" version="21.1.8" type="device">
  <diagram name="Page-1" id="E1ReRfH1k8dmkdPUqw4_">
    <mxGraphModel dx="993" dy="573" grid="1" gridSize="10" guides="1" tooltips="1" connect="1" arrows="1" fold="1" page="1" pageScale="1" pageWidth="850" pageHeight="1100" math="0" shadow="0">
      <root>
        <mxCell id="0" />
        <mxCell id="1" parent="0" />
        <mxCell id="g6E-OJ01apLkljUUS9sB-6" style="edgeStyle=orthogonalEdgeStyle;rounded=0;orthogonalLoop=1;jettySize=auto;html=1;exitX=0.5;exitY=1;exitDx=0;exitDy=0;entryX=0.5;entryY=0;entryDx=0;entryDy=0;" edge="1" parent="1" source="g6E-OJ01apLkljUUS9sB-1" target="g6E-OJ01apLkljUUS9sB-5">
          <mxGeometry relative="1" as="geometry" />
        </mxCell>
        <mxCell id="g6E-OJ01apLkljUUS9sB-1" value="Create a group and add first user" style="rounded=0;whiteSpace=wrap;html=1;fillColor=#dae8fc;strokeColor=#6c8ebf;" vertex="1" parent="1">
          <mxGeometry x="340" y="150" width="120" height="60" as="geometry" />
        </mxCell>
        <mxCell id="g6E-OJ01apLkljUUS9sB-4" style="edgeStyle=orthogonalEdgeStyle;rounded=0;orthogonalLoop=1;jettySize=auto;html=1;exitX=0.5;exitY=1;exitDx=0;exitDy=0;entryX=0.5;entryY=0;entryDx=0;entryDy=0;" edge="1" parent="1" source="g6E-OJ01apLkljUUS9sB-3" target="g6E-OJ01apLkljUUS9sB-1">
          <mxGeometry relative="1" as="geometry" />
        </mxCell>
        <mxCell id="g6E-OJ01apLkljUUS9sB-3" value="Start" style="ellipse;whiteSpace=wrap;html=1;fillColor=#d5e8d4;strokeColor=#82b366;" vertex="1" parent="1">
          <mxGeometry x="340" y="80" width="120" height="50" as="geometry" />
        </mxCell>
        <mxCell id="g6E-OJ01apLkljUUS9sB-8" value="No" style="edgeStyle=orthogonalEdgeStyle;rounded=0;orthogonalLoop=1;jettySize=auto;html=1;exitX=0.5;exitY=1;exitDx=0;exitDy=0;entryX=0.5;entryY=0;entryDx=0;entryDy=0;" edge="1" parent="1" source="g6E-OJ01apLkljUUS9sB-9" target="g6E-OJ01apLkljUUS9sB-7">
          <mxGeometry relative="1" as="geometry" />
        </mxCell>
        <mxCell id="g6E-OJ01apLkljUUS9sB-12" value="" style="edgeStyle=orthogonalEdgeStyle;rounded=0;orthogonalLoop=1;jettySize=auto;html=1;" edge="1" parent="1" source="g6E-OJ01apLkljUUS9sB-5" target="g6E-OJ01apLkljUUS9sB-11">
          <mxGeometry relative="1" as="geometry" />
        </mxCell>
        <mxCell id="g6E-OJ01apLkljUUS9sB-5" value="Make the group and root be the only privileged to use root access to access sock file" style="rounded=0;whiteSpace=wrap;html=1;fillColor=#dae8fc;strokeColor=#6c8ebf;" vertex="1" parent="1">
          <mxGeometry x="340" y="230" width="120" height="80" as="geometry" />
        </mxCell>
        <mxCell id="g6E-OJ01apLkljUUS9sB-7" value="Stop" style="ellipse;whiteSpace=wrap;html=1;fillColor=#f8cecc;strokeColor=#b85450;" vertex="1" parent="1">
          <mxGeometry x="340" y="530" width="120" height="60" as="geometry" />
        </mxCell>
        <mxCell id="g6E-OJ01apLkljUUS9sB-20" value="Yes" style="edgeStyle=orthogonalEdgeStyle;rounded=0;orthogonalLoop=1;jettySize=auto;html=1;exitX=1;exitY=0.5;exitDx=0;exitDy=0;entryX=0;entryY=0.5;entryDx=0;entryDy=0;" edge="1" parent="1" source="g6E-OJ01apLkljUUS9sB-9" target="g6E-OJ01apLkljUUS9sB-14">
          <mxGeometry relative="1" as="geometry" />
        </mxCell>
        <mxCell id="g6E-OJ01apLkljUUS9sB-9" value="Add new users to group?" style="rhombus;whiteSpace=wrap;html=1;fillColor=#fff2cc;strokeColor=#d6b656;" vertex="1" parent="1">
          <mxGeometry x="360" y="410" width="90" height="100" as="geometry" />
        </mxCell>
        <mxCell id="g6E-OJ01apLkljUUS9sB-13" value="" style="edgeStyle=orthogonalEdgeStyle;rounded=0;orthogonalLoop=1;jettySize=auto;html=1;" edge="1" parent="1" source="g6E-OJ01apLkljUUS9sB-11" target="g6E-OJ01apLkljUUS9sB-9">
          <mxGeometry relative="1" as="geometry" />
        </mxCell>
        <mxCell id="g6E-OJ01apLkljUUS9sB-11" value="Make the sock file read and write only" style="rounded=0;whiteSpace=wrap;html=1;fillColor=#dae8fc;strokeColor=#6c8ebf;" vertex="1" parent="1">
          <mxGeometry x="340" y="330" width="120" height="60" as="geometry" />
        </mxCell>
        <mxCell id="g6E-OJ01apLkljUUS9sB-21" style="edgeStyle=orthogonalEdgeStyle;rounded=0;orthogonalLoop=1;jettySize=auto;html=1;exitX=0.5;exitY=0;exitDx=0;exitDy=0;" edge="1" parent="1" source="g6E-OJ01apLkljUUS9sB-14">
          <mxGeometry relative="1" as="geometry">
            <mxPoint x="400" y="400" as="targetPoint" />
            <Array as="points">
              <mxPoint x="540" y="400" />
              <mxPoint x="400" y="400" />
            </Array>
          </mxGeometry>
        </mxCell>
        <mxCell id="g6E-OJ01apLkljUUS9sB-14" value="Add new users to the group" style="rounded=0;whiteSpace=wrap;html=1;fillColor=#dae8fc;strokeColor=#6c8ebf;" vertex="1" parent="1">
          <mxGeometry x="500" y="430" width="120" height="60" as="geometry" />
        </mxCell>
      </root>
    </mxGraphModel>
  </diagram>
</mxfile>
